<mxfile host="app.diagrams.net" modified="2021-09-17T04:10:17.002Z" agent="5.0 (Macintosh; Intel Mac OS X 10_15_7) AppleWebKit/537.36 (KHTML, like Gecko) Chrome/92.0.4515.159 Safari/537.36" etag="Jv8_rWwlE34UD1a0Ji35" version="15.2.9" type="github">
  <diagram name="Page-1" id="74e2e168-ea6b-b213-b513-2b3c1d86103e">
    <mxGraphModel dx="2066" dy="1129" grid="1" gridSize="10" guides="1" tooltips="1" connect="1" arrows="1" fold="1" page="1" pageScale="1" pageWidth="1100" pageHeight="850" background="none" math="0" shadow="0">
      <root>
        <mxCell id="0" />
        <mxCell id="1" parent="0" />
        <mxCell id="77e6c97f196da883-1" value="IT账号可视化" style="swimlane;html=1;childLayout=stackLayout;startSize=20;rounded=0;shadow=0;labelBackgroundColor=none;strokeWidth=1;fontFamily=Verdana;fontSize=8;align=center;" parent="1" vertex="1">
          <mxGeometry x="370" y="50" width="1280" height="1410" as="geometry" />
        </mxCell>
        <mxCell id="77e6c97f196da883-26" style="edgeStyle=orthogonalEdgeStyle;rounded=1;html=1;labelBackgroundColor=none;startArrow=none;startFill=0;startSize=5;endArrow=classicThin;endFill=1;endSize=5;jettySize=auto;orthogonalLoop=1;strokeWidth=1;fontFamily=Verdana;fontSize=8" parent="77e6c97f196da883-1" source="77e6c97f196da883-8" target="77e6c97f196da883-11" edge="1">
          <mxGeometry relative="1" as="geometry" />
        </mxCell>
        <mxCell id="77e6c97f196da883-2" value="前端" style="swimlane;html=1;startSize=20;" parent="77e6c97f196da883-1" vertex="1">
          <mxGeometry y="20" width="160" height="1390" as="geometry" />
        </mxCell>
        <mxCell id="77e6c97f196da883-8" value="获取基本信息" style="rounded=1;whiteSpace=wrap;html=1;shadow=0;labelBackgroundColor=none;strokeWidth=1;fontFamily=Verdana;fontSize=8;align=center;" parent="77e6c97f196da883-2" vertex="1">
          <mxGeometry x="20" y="65" width="100" height="60" as="geometry" />
        </mxCell>
        <mxCell id="hE7h3HSLKEIrsSuIDKho-19" value="域账号卡片信息" style="rounded=1;whiteSpace=wrap;html=1;shadow=0;labelBackgroundColor=none;strokeWidth=1;fontFamily=Verdana;fontSize=8;align=center;" vertex="1" parent="77e6c97f196da883-2">
          <mxGeometry x="30" y="290" width="100" height="60" as="geometry" />
        </mxCell>
        <mxCell id="hE7h3HSLKEIrsSuIDKho-20" value="深信服VPN卡片信息" style="rounded=1;whiteSpace=wrap;html=1;shadow=0;labelBackgroundColor=none;strokeWidth=1;fontFamily=Verdana;fontSize=8;align=center;" vertex="1" parent="77e6c97f196da883-2">
          <mxGeometry x="30" y="1070" width="100" height="60" as="geometry" />
        </mxCell>
        <mxCell id="hE7h3HSLKEIrsSuIDKho-21" value="飞塔VPN卡片信息" style="rounded=1;whiteSpace=wrap;html=1;shadow=0;labelBackgroundColor=none;strokeWidth=1;fontFamily=Verdana;fontSize=8;align=center;" vertex="1" parent="77e6c97f196da883-2">
          <mxGeometry x="30" y="900" width="100" height="60" as="geometry" />
        </mxCell>
        <mxCell id="hE7h3HSLKEIrsSuIDKho-22" value="邮箱卡片信息" style="rounded=1;whiteSpace=wrap;html=1;shadow=0;labelBackgroundColor=none;strokeWidth=1;fontFamily=Verdana;fontSize=8;align=center;" vertex="1" parent="77e6c97f196da883-2">
          <mxGeometry x="30" y="740" width="100" height="60" as="geometry" />
        </mxCell>
        <mxCell id="hE7h3HSLKEIrsSuIDKho-23" value="WebEx账号卡片信息" style="rounded=1;whiteSpace=wrap;html=1;shadow=0;labelBackgroundColor=none;strokeWidth=1;fontFamily=Verdana;fontSize=8;align=center;" vertex="1" parent="77e6c97f196da883-2">
          <mxGeometry x="20" y="1205" width="100" height="60" as="geometry" />
        </mxCell>
        <mxCell id="hE7h3HSLKEIrsSuIDKho-30" value="域账号修改/重置" style="rounded=1;whiteSpace=wrap;html=1;shadow=0;labelBackgroundColor=none;strokeWidth=1;fontFamily=Verdana;fontSize=8;align=center;" vertex="1" parent="77e6c97f196da883-2">
          <mxGeometry x="30" y="520" width="100" height="60" as="geometry" />
        </mxCell>
        <mxCell id="77e6c97f196da883-3" value="&lt;span style=&quot;font-family: &amp;#34;verdana&amp;#34; ; font-size: 8px ; font-weight: 400&quot;&gt;portal&lt;/span&gt;" style="swimlane;html=1;startSize=20;" parent="77e6c97f196da883-1" vertex="1">
          <mxGeometry x="160" y="20" width="160" height="1390" as="geometry" />
        </mxCell>
        <mxCell id="77e6c97f196da883-11" value="&lt;span&gt;查询基本信息&lt;/span&gt;" style="rounded=1;whiteSpace=wrap;html=1;shadow=0;labelBackgroundColor=none;strokeWidth=1;fontFamily=Verdana;fontSize=8;align=center;" parent="77e6c97f196da883-3" vertex="1">
          <mxGeometry x="30" y="65" width="100" height="60" as="geometry" />
        </mxCell>
        <mxCell id="77e6c97f196da883-9" value="返回基本信息" style="rounded=1;whiteSpace=wrap;html=1;shadow=0;labelBackgroundColor=none;strokeWidth=1;fontFamily=Verdana;fontSize=8;align=center;" parent="77e6c97f196da883-3" vertex="1">
          <mxGeometry x="30" y="160" width="100" height="60" as="geometry" />
        </mxCell>
        <mxCell id="hE7h3HSLKEIrsSuIDKho-24" value="&lt;span&gt;查询域账号信息&lt;/span&gt;" style="rounded=1;whiteSpace=wrap;html=1;shadow=0;labelBackgroundColor=none;strokeWidth=1;fontFamily=Verdana;fontSize=8;align=center;" vertex="1" parent="77e6c97f196da883-3">
          <mxGeometry x="30" y="290" width="100" height="60" as="geometry" />
        </mxCell>
        <mxCell id="hE7h3HSLKEIrsSuIDKho-26" value="&lt;span&gt;返回域账号信息&lt;/span&gt;" style="rounded=1;whiteSpace=wrap;html=1;shadow=0;labelBackgroundColor=none;strokeWidth=1;fontFamily=Verdana;fontSize=8;align=center;" vertex="1" parent="77e6c97f196da883-3">
          <mxGeometry x="30" y="380" width="100" height="60" as="geometry" />
        </mxCell>
        <mxCell id="hE7h3HSLKEIrsSuIDKho-31" value="域账号修改/重置" style="rounded=1;whiteSpace=wrap;html=1;shadow=0;labelBackgroundColor=none;strokeWidth=1;fontFamily=Verdana;fontSize=8;align=center;" vertex="1" parent="77e6c97f196da883-3">
          <mxGeometry x="30" y="520" width="100" height="60" as="geometry" />
        </mxCell>
        <mxCell id="hE7h3HSLKEIrsSuIDKho-35" value="&lt;span&gt;返回成功失败信息&lt;/span&gt;" style="rounded=1;whiteSpace=wrap;html=1;shadow=0;labelBackgroundColor=none;strokeWidth=1;fontFamily=Verdana;fontSize=8;align=center;" vertex="1" parent="77e6c97f196da883-3">
          <mxGeometry x="30" y="620" width="100" height="60" as="geometry" />
        </mxCell>
        <mxCell id="77e6c97f196da883-5" value="邮箱" style="swimlane;html=1;startSize=20;" parent="77e6c97f196da883-1" vertex="1">
          <mxGeometry x="320" y="20" width="160" height="1390" as="geometry" />
        </mxCell>
        <mxCell id="77e6c97f196da883-20" value="" style="rhombus;whiteSpace=wrap;html=1;rounded=0;shadow=0;labelBackgroundColor=none;strokeWidth=1;fontFamily=Verdana;fontSize=8;align=center;" parent="77e6c97f196da883-5" vertex="1">
          <mxGeometry x="50" y="910" width="80" height="60" as="geometry" />
        </mxCell>
        <mxCell id="77e6c97f196da883-7" value="深信服VPN" style="swimlane;html=1;startSize=20;" parent="77e6c97f196da883-1" vertex="1">
          <mxGeometry x="480" y="20" width="160" height="1390" as="geometry" />
        </mxCell>
        <mxCell id="hE7h3HSLKEIrsSuIDKho-1" value="WebEx账号" style="swimlane;html=1;startSize=20;" vertex="1" parent="77e6c97f196da883-1">
          <mxGeometry x="640" y="20" width="160" height="1390" as="geometry" />
        </mxCell>
        <mxCell id="hE7h3HSLKEIrsSuIDKho-4" value="IAM" style="swimlane;html=1;startSize=20;" vertex="1" parent="77e6c97f196da883-1">
          <mxGeometry x="800" y="20" width="160" height="1390" as="geometry" />
        </mxCell>
        <mxCell id="hE7h3HSLKEIrsSuIDKho-25" value="&lt;span&gt;查询域账号信息&lt;/span&gt;" style="rounded=1;whiteSpace=wrap;html=1;shadow=0;labelBackgroundColor=none;strokeWidth=1;fontFamily=Verdana;fontSize=8;align=center;" vertex="1" parent="hE7h3HSLKEIrsSuIDKho-4">
          <mxGeometry x="30" y="290" width="100" height="60" as="geometry" />
        </mxCell>
        <mxCell id="hE7h3HSLKEIrsSuIDKho-33" value="域账号修改/重置" style="rounded=1;whiteSpace=wrap;html=1;shadow=0;labelBackgroundColor=none;strokeWidth=1;fontFamily=Verdana;fontSize=8;align=center;" vertex="1" parent="hE7h3HSLKEIrsSuIDKho-4">
          <mxGeometry x="40" y="520" width="100" height="60" as="geometry" />
        </mxCell>
        <mxCell id="hE7h3HSLKEIrsSuIDKho-6" value="BPM" style="swimlane;html=1;startSize=20;" vertex="1" parent="77e6c97f196da883-1">
          <mxGeometry x="960" y="20" width="160" height="1390" as="geometry" />
        </mxCell>
        <mxCell id="hE7h3HSLKEIrsSuIDKho-8" value="人力系统" style="swimlane;html=1;startSize=20;" vertex="1" parent="77e6c97f196da883-1">
          <mxGeometry x="1120" y="20" width="160" height="1390" as="geometry" />
        </mxCell>
        <mxCell id="hE7h3HSLKEIrsSuIDKho-11" value="&lt;span&gt;查询基本信息&lt;/span&gt;" style="rounded=1;whiteSpace=wrap;html=1;shadow=0;labelBackgroundColor=none;strokeWidth=1;fontFamily=Verdana;fontSize=8;align=center;" vertex="1" parent="hE7h3HSLKEIrsSuIDKho-8">
          <mxGeometry x="30" y="67.5" width="100" height="55" as="geometry" />
        </mxCell>
        <mxCell id="hE7h3HSLKEIrsSuIDKho-12" style="edgeStyle=orthogonalEdgeStyle;rounded=0;orthogonalLoop=1;jettySize=auto;html=1;entryX=0;entryY=0.5;entryDx=0;entryDy=0;" edge="1" parent="77e6c97f196da883-1" source="77e6c97f196da883-11" target="hE7h3HSLKEIrsSuIDKho-11">
          <mxGeometry relative="1" as="geometry">
            <mxPoint x="1230" y="120" as="targetPoint" />
          </mxGeometry>
        </mxCell>
        <mxCell id="hE7h3HSLKEIrsSuIDKho-16" style="edgeStyle=orthogonalEdgeStyle;rounded=0;orthogonalLoop=1;jettySize=auto;html=1;entryX=1;entryY=0.5;entryDx=0;entryDy=0;" edge="1" parent="77e6c97f196da883-1" source="hE7h3HSLKEIrsSuIDKho-11" target="77e6c97f196da883-9">
          <mxGeometry relative="1" as="geometry">
            <mxPoint x="320" y="210" as="targetPoint" />
            <Array as="points">
              <mxPoint x="1270" y="115" />
              <mxPoint x="1270" y="210" />
            </Array>
          </mxGeometry>
        </mxCell>
        <mxCell id="hE7h3HSLKEIrsSuIDKho-18" style="edgeStyle=orthogonalEdgeStyle;rounded=0;orthogonalLoop=1;jettySize=auto;html=1;entryX=0.5;entryY=1;entryDx=0;entryDy=0;" edge="1" parent="77e6c97f196da883-1" source="77e6c97f196da883-9" target="77e6c97f196da883-8">
          <mxGeometry relative="1" as="geometry" />
        </mxCell>
        <mxCell id="hE7h3HSLKEIrsSuIDKho-27" style="edgeStyle=orthogonalEdgeStyle;rounded=0;orthogonalLoop=1;jettySize=auto;html=1;entryX=0.44;entryY=1.033;entryDx=0;entryDy=0;entryPerimeter=0;" edge="1" parent="77e6c97f196da883-1" source="hE7h3HSLKEIrsSuIDKho-26" target="hE7h3HSLKEIrsSuIDKho-19">
          <mxGeometry relative="1" as="geometry" />
        </mxCell>
        <mxCell id="hE7h3HSLKEIrsSuIDKho-28" style="edgeStyle=orthogonalEdgeStyle;rounded=0;orthogonalLoop=1;jettySize=auto;html=1;entryX=0;entryY=0.5;entryDx=0;entryDy=0;" edge="1" parent="77e6c97f196da883-1" source="hE7h3HSLKEIrsSuIDKho-19" target="hE7h3HSLKEIrsSuIDKho-24">
          <mxGeometry relative="1" as="geometry" />
        </mxCell>
        <mxCell id="hE7h3HSLKEIrsSuIDKho-29" style="edgeStyle=orthogonalEdgeStyle;rounded=0;orthogonalLoop=1;jettySize=auto;html=1;" edge="1" parent="77e6c97f196da883-1" source="hE7h3HSLKEIrsSuIDKho-24" target="hE7h3HSLKEIrsSuIDKho-25">
          <mxGeometry relative="1" as="geometry" />
        </mxCell>
        <mxCell id="hE7h3HSLKEIrsSuIDKho-32" style="edgeStyle=orthogonalEdgeStyle;rounded=0;orthogonalLoop=1;jettySize=auto;html=1;entryX=0;entryY=0.5;entryDx=0;entryDy=0;" edge="1" parent="77e6c97f196da883-1" source="hE7h3HSLKEIrsSuIDKho-30" target="hE7h3HSLKEIrsSuIDKho-31">
          <mxGeometry relative="1" as="geometry" />
        </mxCell>
        <mxCell id="hE7h3HSLKEIrsSuIDKho-34" style="edgeStyle=orthogonalEdgeStyle;rounded=0;orthogonalLoop=1;jettySize=auto;html=1;entryX=0;entryY=0.5;entryDx=0;entryDy=0;" edge="1" parent="77e6c97f196da883-1" source="hE7h3HSLKEIrsSuIDKho-31" target="hE7h3HSLKEIrsSuIDKho-33">
          <mxGeometry relative="1" as="geometry" />
        </mxCell>
        <mxCell id="hE7h3HSLKEIrsSuIDKho-36" style="edgeStyle=orthogonalEdgeStyle;rounded=0;orthogonalLoop=1;jettySize=auto;html=1;entryX=1;entryY=0.5;entryDx=0;entryDy=0;" edge="1" parent="77e6c97f196da883-1" source="hE7h3HSLKEIrsSuIDKho-33" target="hE7h3HSLKEIrsSuIDKho-35">
          <mxGeometry relative="1" as="geometry">
            <Array as="points">
              <mxPoint x="890" y="670" />
            </Array>
          </mxGeometry>
        </mxCell>
      </root>
    </mxGraphModel>
  </diagram>
</mxfile>
